<mxfile host="app.diagrams.net" modified="2024-06-06T06:36:07.037Z" agent="Mozilla/5.0 (X11; Linux x86_64) AppleWebKit/537.36 (KHTML, like Gecko) Chrome/116.0.0.0 Safari/537.36" etag="yjC2KsSWjnp3j5ZOnjPw" version="24.4.4" type="device">
  <diagram id="R2lEEEUBdFMjLlhIrx00" name="Page-1">
    <mxGraphModel dx="1311" dy="735" grid="0" gridSize="10" guides="1" tooltips="1" connect="1" arrows="1" fold="1" page="1" pageScale="1" pageWidth="850" pageHeight="1100" math="0" shadow="0" extFonts="Permanent Marker^https://fonts.googleapis.com/css?family=Permanent+Marker">
      <root>
        <mxCell id="0" />
        <mxCell id="1" parent="0" />
        <mxCell id="htTb-2GC3eU_kXo-NMkK-1" style="edgeStyle=orthogonalEdgeStyle;rounded=0;orthogonalLoop=1;jettySize=auto;html=1;exitX=1;exitY=0.5;exitDx=0;exitDy=0;entryX=0;entryY=0.5;entryDx=0;entryDy=0;" parent="1" source="htTb-2GC3eU_kXo-NMkK-3" target="htTb-2GC3eU_kXo-NMkK-19" edge="1">
          <mxGeometry relative="1" as="geometry" />
        </mxCell>
        <mxCell id="htTb-2GC3eU_kXo-NMkK-90" style="edgeStyle=orthogonalEdgeStyle;rounded=0;orthogonalLoop=1;jettySize=auto;html=1;exitX=0.75;exitY=1;exitDx=0;exitDy=0;entryX=1;entryY=0.5;entryDx=0;entryDy=0;" parent="1" source="htTb-2GC3eU_kXo-NMkK-3" target="htTb-2GC3eU_kXo-NMkK-26" edge="1">
          <mxGeometry relative="1" as="geometry" />
        </mxCell>
        <mxCell id="htTb-2GC3eU_kXo-NMkK-103" style="edgeStyle=orthogonalEdgeStyle;rounded=0;orthogonalLoop=1;jettySize=auto;html=1;exitX=0.5;exitY=1;exitDx=0;exitDy=0;entryX=0;entryY=0.5;entryDx=0;entryDy=0;" parent="1" source="htTb-2GC3eU_kXo-NMkK-3" target="htTb-2GC3eU_kXo-NMkK-100" edge="1">
          <mxGeometry relative="1" as="geometry" />
        </mxCell>
        <mxCell id="htTb-2GC3eU_kXo-NMkK-3" value="Usuario" style="rounded=0;whiteSpace=wrap;html=1;" parent="1" vertex="1">
          <mxGeometry x="120" y="617.5" width="120" height="60" as="geometry" />
        </mxCell>
        <mxCell id="htTb-2GC3eU_kXo-NMkK-4" style="edgeStyle=orthogonalEdgeStyle;rounded=0;orthogonalLoop=1;jettySize=auto;html=1;exitX=1;exitY=1;exitDx=0;exitDy=0;" parent="1" source="htTb-2GC3eU_kXo-NMkK-5" target="htTb-2GC3eU_kXo-NMkK-3" edge="1">
          <mxGeometry relative="1" as="geometry" />
        </mxCell>
        <mxCell id="htTb-2GC3eU_kXo-NMkK-5" value="Nombre" style="ellipse;whiteSpace=wrap;html=1;" parent="1" vertex="1">
          <mxGeometry x="150" y="530" width="60" height="30" as="geometry" />
        </mxCell>
        <mxCell id="htTb-2GC3eU_kXo-NMkK-6" style="edgeStyle=orthogonalEdgeStyle;rounded=0;orthogonalLoop=1;jettySize=auto;html=1;exitX=1;exitY=0.5;exitDx=0;exitDy=0;" parent="1" source="htTb-2GC3eU_kXo-NMkK-7" target="htTb-2GC3eU_kXo-NMkK-3" edge="1">
          <mxGeometry relative="1" as="geometry" />
        </mxCell>
        <mxCell id="htTb-2GC3eU_kXo-NMkK-7" value="Contraseña" style="ellipse;whiteSpace=wrap;html=1;" parent="1" vertex="1">
          <mxGeometry y="640" width="70" height="30" as="geometry" />
        </mxCell>
        <mxCell id="htTb-2GC3eU_kXo-NMkK-8" style="edgeStyle=orthogonalEdgeStyle;rounded=0;orthogonalLoop=1;jettySize=auto;html=1;exitX=1;exitY=0.5;exitDx=0;exitDy=0;entryX=0;entryY=0;entryDx=0;entryDy=0;" parent="1" source="htTb-2GC3eU_kXo-NMkK-9" target="htTb-2GC3eU_kXo-NMkK-3" edge="1">
          <mxGeometry relative="1" as="geometry" />
        </mxCell>
        <mxCell id="htTb-2GC3eU_kXo-NMkK-9" value="Apellido" style="ellipse;whiteSpace=wrap;html=1;" parent="1" vertex="1">
          <mxGeometry x="5" y="600" width="60" height="30" as="geometry" />
        </mxCell>
        <mxCell id="htTb-2GC3eU_kXo-NMkK-10" style="edgeStyle=orthogonalEdgeStyle;rounded=0;orthogonalLoop=1;jettySize=auto;html=1;exitX=1;exitY=0.5;exitDx=0;exitDy=0;entryX=0;entryY=1;entryDx=0;entryDy=0;" parent="1" source="htTb-2GC3eU_kXo-NMkK-11" target="htTb-2GC3eU_kXo-NMkK-3" edge="1">
          <mxGeometry relative="1" as="geometry" />
        </mxCell>
        <mxCell id="htTb-2GC3eU_kXo-NMkK-11" value="Correo" style="ellipse;whiteSpace=wrap;html=1;" parent="1" vertex="1">
          <mxGeometry x="5" y="700" width="60" height="30" as="geometry" />
        </mxCell>
        <mxCell id="htTb-2GC3eU_kXo-NMkK-12" style="edgeStyle=orthogonalEdgeStyle;rounded=0;orthogonalLoop=1;jettySize=auto;html=1;exitX=0;exitY=1;exitDx=0;exitDy=0;entryX=0.75;entryY=0;entryDx=0;entryDy=0;" parent="1" source="htTb-2GC3eU_kXo-NMkK-13" target="htTb-2GC3eU_kXo-NMkK-3" edge="1">
          <mxGeometry relative="1" as="geometry" />
        </mxCell>
        <mxCell id="htTb-2GC3eU_kXo-NMkK-13" value="Fecha Nacimiento" style="ellipse;whiteSpace=wrap;html=1;" parent="1" vertex="1">
          <mxGeometry x="220" y="525" width="70" height="40" as="geometry" />
        </mxCell>
        <mxCell id="htTb-2GC3eU_kXo-NMkK-98" style="edgeStyle=orthogonalEdgeStyle;rounded=0;orthogonalLoop=1;jettySize=auto;html=1;exitX=0;exitY=0.5;exitDx=0;exitDy=0;entryX=1;entryY=0;entryDx=0;entryDy=0;" parent="1" source="htTb-2GC3eU_kXo-NMkK-15" target="htTb-2GC3eU_kXo-NMkK-3" edge="1">
          <mxGeometry relative="1" as="geometry" />
        </mxCell>
        <mxCell id="htTb-2GC3eU_kXo-NMkK-15" value="Población" style="ellipse;whiteSpace=wrap;html=1;" parent="1" vertex="1">
          <mxGeometry x="300" y="557.5" width="60" height="30" as="geometry" />
        </mxCell>
        <mxCell id="htTb-2GC3eU_kXo-NMkK-16" style="edgeStyle=orthogonalEdgeStyle;rounded=0;orthogonalLoop=1;jettySize=auto;html=1;exitX=1;exitY=0;exitDx=0;exitDy=0;entryX=0.25;entryY=1;entryDx=0;entryDy=0;" parent="1" source="htTb-2GC3eU_kXo-NMkK-17" target="htTb-2GC3eU_kXo-NMkK-3" edge="1">
          <mxGeometry relative="1" as="geometry" />
        </mxCell>
        <mxCell id="htTb-2GC3eU_kXo-NMkK-17" value="Imagen Perfil" style="ellipse;whiteSpace=wrap;html=1;" parent="1" vertex="1">
          <mxGeometry x="90" y="760" width="60" height="30" as="geometry" />
        </mxCell>
        <mxCell id="htTb-2GC3eU_kXo-NMkK-18" style="edgeStyle=orthogonalEdgeStyle;rounded=0;orthogonalLoop=1;jettySize=auto;html=1;exitX=1;exitY=0.5;exitDx=0;exitDy=0;entryX=0;entryY=0.5;entryDx=0;entryDy=0;" parent="1" source="htTb-2GC3eU_kXo-NMkK-19" target="htTb-2GC3eU_kXo-NMkK-29" edge="1">
          <mxGeometry relative="1" as="geometry" />
        </mxCell>
        <mxCell id="htTb-2GC3eU_kXo-NMkK-19" value="Sube" style="rhombus;whiteSpace=wrap;html=1;" parent="1" vertex="1">
          <mxGeometry x="310" y="627.5" width="70" height="40" as="geometry" />
        </mxCell>
        <mxCell id="htTb-2GC3eU_kXo-NMkK-20" value="N" style="text;html=1;strokeColor=none;fillColor=none;align=center;verticalAlign=middle;whiteSpace=wrap;rounded=0;" parent="1" vertex="1">
          <mxGeometry x="300" y="625" width="30" height="15" as="geometry" />
        </mxCell>
        <mxCell id="htTb-2GC3eU_kXo-NMkK-21" value="N" style="text;html=1;strokeColor=none;fillColor=none;align=center;verticalAlign=middle;whiteSpace=wrap;rounded=0;" parent="1" vertex="1">
          <mxGeometry x="350" y="625" width="30" height="15" as="geometry" />
        </mxCell>
        <mxCell id="htTb-2GC3eU_kXo-NMkK-91" style="edgeStyle=orthogonalEdgeStyle;rounded=0;orthogonalLoop=1;jettySize=auto;html=1;exitX=0;exitY=0.5;exitDx=0;exitDy=0;entryX=0;entryY=1;entryDx=0;entryDy=0;" parent="1" source="htTb-2GC3eU_kXo-NMkK-26" target="htTb-2GC3eU_kXo-NMkK-31" edge="1">
          <mxGeometry relative="1" as="geometry">
            <mxPoint x="730" y="750" as="targetPoint" />
            <Array as="points">
              <mxPoint x="730" y="813" />
              <mxPoint x="730" y="678" />
            </Array>
          </mxGeometry>
        </mxCell>
        <mxCell id="htTb-2GC3eU_kXo-NMkK-97" style="edgeStyle=orthogonalEdgeStyle;rounded=0;orthogonalLoop=1;jettySize=auto;html=1;exitX=0.5;exitY=0;exitDx=0;exitDy=0;entryX=0.5;entryY=0;entryDx=0;entryDy=0;" parent="1" source="htTb-2GC3eU_kXo-NMkK-26" target="htTb-2GC3eU_kXo-NMkK-96" edge="1">
          <mxGeometry relative="1" as="geometry" />
        </mxCell>
        <mxCell id="htTb-2GC3eU_kXo-NMkK-26" value="Lista Personal" style="rhombus;whiteSpace=wrap;html=1;direction=west;" parent="1" vertex="1">
          <mxGeometry x="500" y="790" width="92.5" height="45" as="geometry" />
        </mxCell>
        <mxCell id="htTb-2GC3eU_kXo-NMkK-28" value="N" style="text;html=1;strokeColor=none;fillColor=none;align=center;verticalAlign=middle;whiteSpace=wrap;rounded=0;" parent="1" vertex="1">
          <mxGeometry x="505" y="830" width="30" height="20" as="geometry" />
        </mxCell>
        <mxCell id="htTb-2GC3eU_kXo-NMkK-29" value="Subidas" style="rounded=0;whiteSpace=wrap;html=1;" parent="1" vertex="1">
          <mxGeometry x="460" y="617.5" width="120" height="60" as="geometry" />
        </mxCell>
        <mxCell id="htTb-2GC3eU_kXo-NMkK-30" style="edgeStyle=orthogonalEdgeStyle;rounded=0;orthogonalLoop=1;jettySize=auto;html=1;exitX=0;exitY=0.5;exitDx=0;exitDy=0;entryX=1;entryY=0.5;entryDx=0;entryDy=0;" parent="1" source="htTb-2GC3eU_kXo-NMkK-31" target="htTb-2GC3eU_kXo-NMkK-49" edge="1">
          <mxGeometry relative="1" as="geometry" />
        </mxCell>
        <mxCell id="htTb-2GC3eU_kXo-NMkK-84" style="edgeStyle=orthogonalEdgeStyle;rounded=0;orthogonalLoop=1;jettySize=auto;html=1;exitX=0.5;exitY=1;exitDx=0;exitDy=0;entryX=0;entryY=0.5;entryDx=0;entryDy=0;" parent="1" source="htTb-2GC3eU_kXo-NMkK-31" target="htTb-2GC3eU_kXo-NMkK-78" edge="1">
          <mxGeometry relative="1" as="geometry" />
        </mxCell>
        <mxCell id="htTb-2GC3eU_kXo-NMkK-31" value="Película/Serie" style="rounded=0;whiteSpace=wrap;html=1;" parent="1" vertex="1">
          <mxGeometry x="890" y="617.5" width="120" height="60" as="geometry" />
        </mxCell>
        <mxCell id="htTb-2GC3eU_kXo-NMkK-32" style="edgeStyle=orthogonalEdgeStyle;rounded=0;orthogonalLoop=1;jettySize=auto;html=1;exitX=1;exitY=1;exitDx=0;exitDy=0;entryX=0;entryY=0;entryDx=0;entryDy=0;" parent="1" source="htTb-2GC3eU_kXo-NMkK-33" target="htTb-2GC3eU_kXo-NMkK-31" edge="1">
          <mxGeometry relative="1" as="geometry" />
        </mxCell>
        <mxCell id="htTb-2GC3eU_kXo-NMkK-33" value="Título" style="ellipse;whiteSpace=wrap;html=1;" parent="1" vertex="1">
          <mxGeometry x="800" y="542.5" width="60" height="30" as="geometry" />
        </mxCell>
        <mxCell id="htTb-2GC3eU_kXo-NMkK-75" style="edgeStyle=orthogonalEdgeStyle;rounded=0;orthogonalLoop=1;jettySize=auto;html=1;exitX=0;exitY=0.5;exitDx=0;exitDy=0;entryX=1;entryY=0.25;entryDx=0;entryDy=0;" parent="1" source="htTb-2GC3eU_kXo-NMkK-35" target="htTb-2GC3eU_kXo-NMkK-31" edge="1">
          <mxGeometry relative="1" as="geometry" />
        </mxCell>
        <mxCell id="htTb-2GC3eU_kXo-NMkK-35" value="Temporadas" style="ellipse;whiteSpace=wrap;html=1;" parent="1" vertex="1">
          <mxGeometry x="1095" y="600" width="70" height="30" as="geometry" />
        </mxCell>
        <mxCell id="htTb-2GC3eU_kXo-NMkK-74" style="edgeStyle=orthogonalEdgeStyle;rounded=0;orthogonalLoop=1;jettySize=auto;html=1;exitX=0;exitY=0.5;exitDx=0;exitDy=0;entryX=1;entryY=0;entryDx=0;entryDy=0;" parent="1" source="htTb-2GC3eU_kXo-NMkK-37" target="htTb-2GC3eU_kXo-NMkK-31" edge="1">
          <mxGeometry relative="1" as="geometry" />
        </mxCell>
        <mxCell id="htTb-2GC3eU_kXo-NMkK-37" value="Duración" style="ellipse;whiteSpace=wrap;html=1;" parent="1" vertex="1">
          <mxGeometry x="1085" y="560" width="60" height="30" as="geometry" />
        </mxCell>
        <mxCell id="htTb-2GC3eU_kXo-NMkK-92" style="edgeStyle=orthogonalEdgeStyle;rounded=0;orthogonalLoop=1;jettySize=auto;html=1;exitX=1;exitY=0.5;exitDx=0;exitDy=0;entryX=0;entryY=0.25;entryDx=0;entryDy=0;" parent="1" source="htTb-2GC3eU_kXo-NMkK-39" target="htTb-2GC3eU_kXo-NMkK-31" edge="1">
          <mxGeometry relative="1" as="geometry" />
        </mxCell>
        <mxCell id="htTb-2GC3eU_kXo-NMkK-39" value="Intérpretes" style="ellipse;whiteSpace=wrap;html=1;" parent="1" vertex="1">
          <mxGeometry x="770" y="587.5" width="60" height="30" as="geometry" />
        </mxCell>
        <mxCell id="htTb-2GC3eU_kXo-NMkK-40" style="edgeStyle=orthogonalEdgeStyle;rounded=0;orthogonalLoop=1;jettySize=auto;html=1;exitX=0;exitY=1;exitDx=0;exitDy=0;entryX=0.75;entryY=0;entryDx=0;entryDy=0;" parent="1" source="htTb-2GC3eU_kXo-NMkK-41" target="htTb-2GC3eU_kXo-NMkK-31" edge="1">
          <mxGeometry relative="1" as="geometry" />
        </mxCell>
        <mxCell id="htTb-2GC3eU_kXo-NMkK-41" value="Año" style="ellipse;whiteSpace=wrap;html=1;" parent="1" vertex="1">
          <mxGeometry x="1030" y="512.5" width="70" height="40" as="geometry" />
        </mxCell>
        <mxCell id="htTb-2GC3eU_kXo-NMkK-77" style="edgeStyle=orthogonalEdgeStyle;rounded=0;orthogonalLoop=1;jettySize=auto;html=1;exitX=0;exitY=0;exitDx=0;exitDy=0;entryX=1;entryY=1;entryDx=0;entryDy=0;" parent="1" source="htTb-2GC3eU_kXo-NMkK-43" target="htTb-2GC3eU_kXo-NMkK-31" edge="1">
          <mxGeometry relative="1" as="geometry" />
        </mxCell>
        <mxCell id="htTb-2GC3eU_kXo-NMkK-43" value="Sinopsis" style="ellipse;whiteSpace=wrap;html=1;" parent="1" vertex="1">
          <mxGeometry x="1085" y="697.5" width="60" height="30" as="geometry" />
        </mxCell>
        <mxCell id="htTb-2GC3eU_kXo-NMkK-93" style="edgeStyle=orthogonalEdgeStyle;rounded=0;orthogonalLoop=1;jettySize=auto;html=1;exitX=0;exitY=0.5;exitDx=0;exitDy=0;entryX=0.75;entryY=1;entryDx=0;entryDy=0;" parent="1" source="htTb-2GC3eU_kXo-NMkK-45" target="htTb-2GC3eU_kXo-NMkK-31" edge="1">
          <mxGeometry relative="1" as="geometry" />
        </mxCell>
        <mxCell id="htTb-2GC3eU_kXo-NMkK-45" value="Dirección" style="ellipse;whiteSpace=wrap;html=1;" parent="1" vertex="1">
          <mxGeometry x="1020" y="740" width="60" height="30" as="geometry" />
        </mxCell>
        <mxCell id="htTb-2GC3eU_kXo-NMkK-76" style="edgeStyle=orthogonalEdgeStyle;rounded=0;orthogonalLoop=1;jettySize=auto;html=1;exitX=0;exitY=0.5;exitDx=0;exitDy=0;entryX=1;entryY=0.75;entryDx=0;entryDy=0;" parent="1" source="htTb-2GC3eU_kXo-NMkK-47" target="htTb-2GC3eU_kXo-NMkK-31" edge="1">
          <mxGeometry relative="1" as="geometry" />
        </mxCell>
        <mxCell id="htTb-2GC3eU_kXo-NMkK-47" value="Imagen" style="ellipse;whiteSpace=wrap;html=1;" parent="1" vertex="1">
          <mxGeometry x="1120" y="643.75" width="60" height="30" as="geometry" />
        </mxCell>
        <mxCell id="htTb-2GC3eU_kXo-NMkK-48" style="edgeStyle=orthogonalEdgeStyle;rounded=0;orthogonalLoop=1;jettySize=auto;html=1;exitX=0;exitY=0.5;exitDx=0;exitDy=0;entryX=1;entryY=0.5;entryDx=0;entryDy=0;" parent="1" source="htTb-2GC3eU_kXo-NMkK-49" target="htTb-2GC3eU_kXo-NMkK-29" edge="1">
          <mxGeometry relative="1" as="geometry" />
        </mxCell>
        <mxCell id="htTb-2GC3eU_kXo-NMkK-49" value="Son subidas&amp;nbsp;" style="rhombus;whiteSpace=wrap;html=1;" parent="1" vertex="1">
          <mxGeometry x="680" y="621.25" width="70" height="52.5" as="geometry" />
        </mxCell>
        <mxCell id="htTb-2GC3eU_kXo-NMkK-50" value="N" style="text;html=1;strokeColor=none;fillColor=none;align=center;verticalAlign=middle;whiteSpace=wrap;rounded=0;" parent="1" vertex="1">
          <mxGeometry x="670" y="617.5" width="30" height="15" as="geometry" />
        </mxCell>
        <mxCell id="htTb-2GC3eU_kXo-NMkK-51" value="N" style="text;html=1;strokeColor=none;fillColor=none;align=center;verticalAlign=middle;whiteSpace=wrap;rounded=0;" parent="1" vertex="1">
          <mxGeometry x="730" y="617.5" width="30" height="15" as="geometry" />
        </mxCell>
        <mxCell id="htTb-2GC3eU_kXo-NMkK-52" style="edgeStyle=orthogonalEdgeStyle;rounded=0;orthogonalLoop=1;jettySize=auto;html=1;exitX=0.5;exitY=0;exitDx=0;exitDy=0;entryX=0.75;entryY=1;entryDx=0;entryDy=0;" parent="1" source="htTb-2GC3eU_kXo-NMkK-53" target="htTb-2GC3eU_kXo-NMkK-29" edge="1">
          <mxGeometry relative="1" as="geometry" />
        </mxCell>
        <mxCell id="htTb-2GC3eU_kXo-NMkK-53" value="&lt;b&gt;&lt;u&gt;ID_Subida&lt;/u&gt;&lt;/b&gt;" style="ellipse;whiteSpace=wrap;html=1;" parent="1" vertex="1">
          <mxGeometry x="540" y="722.5" width="70" height="30" as="geometry" />
        </mxCell>
        <mxCell id="htTb-2GC3eU_kXo-NMkK-54" style="edgeStyle=orthogonalEdgeStyle;rounded=0;orthogonalLoop=1;jettySize=auto;html=1;exitX=1;exitY=1;exitDx=0;exitDy=0;entryX=0.25;entryY=0;entryDx=0;entryDy=0;" parent="1" source="htTb-2GC3eU_kXo-NMkK-55" target="htTb-2GC3eU_kXo-NMkK-3" edge="1">
          <mxGeometry relative="1" as="geometry" />
        </mxCell>
        <mxCell id="htTb-2GC3eU_kXo-NMkK-55" value="&lt;b&gt;&lt;u&gt;ID_Usuario&lt;/u&gt;&lt;/b&gt;" style="ellipse;whiteSpace=wrap;html=1;" parent="1" vertex="1">
          <mxGeometry x="50" y="532.5" width="80" height="32.5" as="geometry" />
        </mxCell>
        <mxCell id="htTb-2GC3eU_kXo-NMkK-56" style="edgeStyle=orthogonalEdgeStyle;rounded=0;orthogonalLoop=1;jettySize=auto;html=1;exitX=0.5;exitY=1;exitDx=0;exitDy=0;" parent="1" source="htTb-2GC3eU_kXo-NMkK-57" target="htTb-2GC3eU_kXo-NMkK-31" edge="1">
          <mxGeometry relative="1" as="geometry" />
        </mxCell>
        <mxCell id="htTb-2GC3eU_kXo-NMkK-57" value="Tipo" style="ellipse;whiteSpace=wrap;html=1;" parent="1" vertex="1">
          <mxGeometry x="930" y="506.25" width="60" height="30" as="geometry" />
        </mxCell>
        <mxCell id="htTb-2GC3eU_kXo-NMkK-58" style="edgeStyle=orthogonalEdgeStyle;rounded=0;orthogonalLoop=1;jettySize=auto;html=1;exitX=1;exitY=1;exitDx=0;exitDy=0;entryX=0.25;entryY=0;entryDx=0;entryDy=0;" parent="1" source="htTb-2GC3eU_kXo-NMkK-59" target="htTb-2GC3eU_kXo-NMkK-31" edge="1">
          <mxGeometry relative="1" as="geometry" />
        </mxCell>
        <mxCell id="htTb-2GC3eU_kXo-NMkK-59" value="&lt;b&gt;&lt;u&gt;ID_Elemento&lt;/u&gt;&lt;/b&gt;" style="ellipse;whiteSpace=wrap;html=1;" parent="1" vertex="1">
          <mxGeometry x="840" y="500" width="79" height="42.5" as="geometry" />
        </mxCell>
        <mxCell id="htTb-2GC3eU_kXo-NMkK-60" style="edgeStyle=orthogonalEdgeStyle;rounded=0;orthogonalLoop=1;jettySize=auto;html=1;exitX=0.5;exitY=1;exitDx=0;exitDy=0;entryX=0.25;entryY=0;entryDx=0;entryDy=0;" parent="1" source="htTb-2GC3eU_kXo-NMkK-61" target="htTb-2GC3eU_kXo-NMkK-29" edge="1">
          <mxGeometry relative="1" as="geometry" />
        </mxCell>
        <mxCell id="htTb-2GC3eU_kXo-NMkK-61" value="ID_Elemento" style="ellipse;whiteSpace=wrap;html=1;" parent="1" vertex="1">
          <mxGeometry x="420" y="542.5" width="70" height="30" as="geometry" />
        </mxCell>
        <mxCell id="htTb-2GC3eU_kXo-NMkK-62" style="edgeStyle=orthogonalEdgeStyle;rounded=0;orthogonalLoop=1;jettySize=auto;html=1;exitX=0.5;exitY=0;exitDx=0;exitDy=0;entryX=0.25;entryY=1;entryDx=0;entryDy=0;" parent="1" source="htTb-2GC3eU_kXo-NMkK-63" target="htTb-2GC3eU_kXo-NMkK-29" edge="1">
          <mxGeometry relative="1" as="geometry" />
        </mxCell>
        <mxCell id="htTb-2GC3eU_kXo-NMkK-63" value="Fecha" style="ellipse;whiteSpace=wrap;html=1;" parent="1" vertex="1">
          <mxGeometry x="440" y="722.5" width="70" height="30" as="geometry" />
        </mxCell>
        <mxCell id="htTb-2GC3eU_kXo-NMkK-64" value="ID_Usuario" style="ellipse;whiteSpace=wrap;html=1;" parent="1" vertex="1">
          <mxGeometry x="520" y="542.5" width="70" height="30" as="geometry" />
        </mxCell>
        <mxCell id="htTb-2GC3eU_kXo-NMkK-65" style="edgeStyle=orthogonalEdgeStyle;rounded=0;orthogonalLoop=1;jettySize=auto;html=1;exitX=0.5;exitY=1;exitDx=0;exitDy=0;entryX=0.692;entryY=0.017;entryDx=0;entryDy=0;entryPerimeter=0;" parent="1" source="htTb-2GC3eU_kXo-NMkK-64" target="htTb-2GC3eU_kXo-NMkK-29" edge="1">
          <mxGeometry relative="1" as="geometry" />
        </mxCell>
        <mxCell id="htTb-2GC3eU_kXo-NMkK-83" style="edgeStyle=orthogonalEdgeStyle;rounded=0;orthogonalLoop=1;jettySize=auto;html=1;exitX=0.5;exitY=0;exitDx=0;exitDy=0;entryX=1;entryY=0.5;entryDx=0;entryDy=0;" parent="1" source="htTb-2GC3eU_kXo-NMkK-67" target="htTb-2GC3eU_kXo-NMkK-78" edge="1">
          <mxGeometry relative="1" as="geometry" />
        </mxCell>
        <mxCell id="htTb-2GC3eU_kXo-NMkK-67" value="Valoracion" style="rounded=0;whiteSpace=wrap;html=1;" parent="1" vertex="1">
          <mxGeometry x="890" y="862.5" width="120" height="60" as="geometry" />
        </mxCell>
        <mxCell id="htTb-2GC3eU_kXo-NMkK-86" style="edgeStyle=orthogonalEdgeStyle;rounded=0;orthogonalLoop=1;jettySize=auto;html=1;exitX=1;exitY=0.5;exitDx=0;exitDy=0;entryX=0;entryY=0.5;entryDx=0;entryDy=0;" parent="1" source="htTb-2GC3eU_kXo-NMkK-68" target="htTb-2GC3eU_kXo-NMkK-67" edge="1">
          <mxGeometry relative="1" as="geometry" />
        </mxCell>
        <mxCell id="htTb-2GC3eU_kXo-NMkK-68" value="&lt;b&gt;&lt;u&gt;ID_Valoracion&lt;/u&gt;&lt;/b&gt;" style="ellipse;whiteSpace=wrap;html=1;" parent="1" vertex="1">
          <mxGeometry x="755" y="877.5" width="90" height="30" as="geometry" />
        </mxCell>
        <mxCell id="htTb-2GC3eU_kXo-NMkK-88" style="edgeStyle=orthogonalEdgeStyle;rounded=0;orthogonalLoop=1;jettySize=auto;html=1;exitX=0;exitY=0;exitDx=0;exitDy=0;entryX=1;entryY=1;entryDx=0;entryDy=0;" parent="1" source="htTb-2GC3eU_kXo-NMkK-69" target="htTb-2GC3eU_kXo-NMkK-67" edge="1">
          <mxGeometry relative="1" as="geometry" />
        </mxCell>
        <mxCell id="htTb-2GC3eU_kXo-NMkK-69" value="Nota" style="ellipse;whiteSpace=wrap;html=1;" parent="1" vertex="1">
          <mxGeometry x="1035" y="968.75" width="60" height="30" as="geometry" />
        </mxCell>
        <mxCell id="htTb-2GC3eU_kXo-NMkK-89" style="edgeStyle=orthogonalEdgeStyle;rounded=0;orthogonalLoop=1;jettySize=auto;html=1;exitX=1;exitY=0;exitDx=0;exitDy=0;entryX=0;entryY=1;entryDx=0;entryDy=0;" parent="1" source="htTb-2GC3eU_kXo-NMkK-70" target="htTb-2GC3eU_kXo-NMkK-67" edge="1">
          <mxGeometry relative="1" as="geometry" />
        </mxCell>
        <mxCell id="htTb-2GC3eU_kXo-NMkK-70" value="Comentario" style="ellipse;whiteSpace=wrap;html=1;" parent="1" vertex="1">
          <mxGeometry x="810" y="968.75" width="60" height="30" as="geometry" />
        </mxCell>
        <mxCell id="htTb-2GC3eU_kXo-NMkK-85" style="edgeStyle=orthogonalEdgeStyle;rounded=0;orthogonalLoop=1;jettySize=auto;html=1;exitX=0;exitY=0.5;exitDx=0;exitDy=0;" parent="1" source="htTb-2GC3eU_kXo-NMkK-72" target="htTb-2GC3eU_kXo-NMkK-67" edge="1">
          <mxGeometry relative="1" as="geometry" />
        </mxCell>
        <mxCell id="htTb-2GC3eU_kXo-NMkK-72" value="ID_Elemento" style="ellipse;whiteSpace=wrap;html=1;" parent="1" vertex="1">
          <mxGeometry x="1086" y="871.25" width="79" height="42.5" as="geometry" />
        </mxCell>
        <mxCell id="htTb-2GC3eU_kXo-NMkK-87" style="edgeStyle=orthogonalEdgeStyle;rounded=0;orthogonalLoop=1;jettySize=auto;html=1;exitX=0.5;exitY=0;exitDx=0;exitDy=0;entryX=0.5;entryY=1;entryDx=0;entryDy=0;" parent="1" source="htTb-2GC3eU_kXo-NMkK-73" target="htTb-2GC3eU_kXo-NMkK-67" edge="1">
          <mxGeometry relative="1" as="geometry" />
        </mxCell>
        <mxCell id="htTb-2GC3eU_kXo-NMkK-73" value="ID_Usuario" style="ellipse;whiteSpace=wrap;html=1;" parent="1" vertex="1">
          <mxGeometry x="910" y="968.75" width="80" height="32.5" as="geometry" />
        </mxCell>
        <mxCell id="htTb-2GC3eU_kXo-NMkK-78" value="Valora" style="rhombus;whiteSpace=wrap;html=1;direction=south;" parent="1" vertex="1">
          <mxGeometry x="927.5" y="770" width="45" height="60" as="geometry" />
        </mxCell>
        <mxCell id="htTb-2GC3eU_kXo-NMkK-79" value="N" style="text;html=1;strokeColor=none;fillColor=none;align=center;verticalAlign=middle;whiteSpace=wrap;rounded=0;" parent="1" vertex="1">
          <mxGeometry x="910" y="775" width="30" height="15" as="geometry" />
        </mxCell>
        <mxCell id="htTb-2GC3eU_kXo-NMkK-80" value="N" style="text;html=1;strokeColor=none;fillColor=none;align=center;verticalAlign=middle;whiteSpace=wrap;rounded=0;" parent="1" vertex="1">
          <mxGeometry x="910" y="800" width="30" height="20" as="geometry" />
        </mxCell>
        <mxCell id="htTb-2GC3eU_kXo-NMkK-95" value="N" style="text;html=1;strokeColor=none;fillColor=none;align=center;verticalAlign=middle;whiteSpace=wrap;rounded=0;" parent="1" vertex="1">
          <mxGeometry x="562.5" y="830" width="30" height="20" as="geometry" />
        </mxCell>
        <mxCell id="htTb-2GC3eU_kXo-NMkK-96" value="&lt;b&gt;&lt;u&gt;ID_Lista&lt;/u&gt;&lt;/b&gt;" style="ellipse;whiteSpace=wrap;html=1;" parent="1" vertex="1">
          <mxGeometry x="506.25" y="907.5" width="80" height="32.5" as="geometry" />
        </mxCell>
        <mxCell id="htTb-2GC3eU_kXo-NMkK-99" value="Mensajes" style="rounded=0;whiteSpace=wrap;html=1;" parent="1" vertex="1">
          <mxGeometry x="120" y="930" width="120" height="60" as="geometry" />
        </mxCell>
        <mxCell id="htTb-2GC3eU_kXo-NMkK-104" style="edgeStyle=orthogonalEdgeStyle;rounded=0;orthogonalLoop=1;jettySize=auto;html=1;exitX=1;exitY=0.5;exitDx=0;exitDy=0;entryX=0.5;entryY=0;entryDx=0;entryDy=0;" parent="1" source="htTb-2GC3eU_kXo-NMkK-100" target="htTb-2GC3eU_kXo-NMkK-99" edge="1">
          <mxGeometry relative="1" as="geometry" />
        </mxCell>
        <mxCell id="htTb-2GC3eU_kXo-NMkK-100" value="Manda" style="rhombus;whiteSpace=wrap;html=1;direction=south;" parent="1" vertex="1">
          <mxGeometry x="157.5" y="810" width="45" height="60" as="geometry" />
        </mxCell>
        <mxCell id="htTb-2GC3eU_kXo-NMkK-101" value="N" style="text;html=1;strokeColor=none;fillColor=none;align=center;verticalAlign=middle;whiteSpace=wrap;rounded=0;" parent="1" vertex="1">
          <mxGeometry x="140" y="815" width="30" height="15" as="geometry" />
        </mxCell>
        <mxCell id="htTb-2GC3eU_kXo-NMkK-102" value="N" style="text;html=1;strokeColor=none;fillColor=none;align=center;verticalAlign=middle;whiteSpace=wrap;rounded=0;" parent="1" vertex="1">
          <mxGeometry x="140" y="850" width="30" height="20" as="geometry" />
        </mxCell>
        <mxCell id="htTb-2GC3eU_kXo-NMkK-113" style="edgeStyle=orthogonalEdgeStyle;rounded=0;orthogonalLoop=1;jettySize=auto;html=1;exitX=0;exitY=0;exitDx=0;exitDy=0;entryX=1;entryY=1;entryDx=0;entryDy=0;" parent="1" source="htTb-2GC3eU_kXo-NMkK-105" target="htTb-2GC3eU_kXo-NMkK-99" edge="1">
          <mxGeometry relative="1" as="geometry" />
        </mxCell>
        <mxCell id="htTb-2GC3eU_kXo-NMkK-105" value="Remitente" style="ellipse;whiteSpace=wrap;html=1;" parent="1" vertex="1">
          <mxGeometry x="285" y="1028.75" width="60" height="30" as="geometry" />
        </mxCell>
        <mxCell id="htTb-2GC3eU_kXo-NMkK-114" style="edgeStyle=orthogonalEdgeStyle;rounded=0;orthogonalLoop=1;jettySize=auto;html=1;exitX=1;exitY=0;exitDx=0;exitDy=0;entryX=0;entryY=1;entryDx=0;entryDy=0;" parent="1" source="htTb-2GC3eU_kXo-NMkK-106" target="htTb-2GC3eU_kXo-NMkK-99" edge="1">
          <mxGeometry relative="1" as="geometry" />
        </mxCell>
        <mxCell id="htTb-2GC3eU_kXo-NMkK-106" value="Texto" style="ellipse;whiteSpace=wrap;html=1;" parent="1" vertex="1">
          <mxGeometry x="30" y="1028.75" width="60" height="30" as="geometry" />
        </mxCell>
        <mxCell id="htTb-2GC3eU_kXo-NMkK-112" style="edgeStyle=orthogonalEdgeStyle;rounded=0;orthogonalLoop=1;jettySize=auto;html=1;exitX=0.5;exitY=0;exitDx=0;exitDy=0;entryX=0.5;entryY=1;entryDx=0;entryDy=0;" parent="1" source="htTb-2GC3eU_kXo-NMkK-107" target="htTb-2GC3eU_kXo-NMkK-99" edge="1">
          <mxGeometry relative="1" as="geometry" />
        </mxCell>
        <mxCell id="htTb-2GC3eU_kXo-NMkK-107" value="Leído/NoLeído" style="ellipse;whiteSpace=wrap;html=1;" parent="1" vertex="1">
          <mxGeometry x="130" y="1028.75" width="100" height="30" as="geometry" />
        </mxCell>
        <mxCell id="htTb-2GC3eU_kXo-NMkK-110" value="" style="edgeStyle=orthogonalEdgeStyle;rounded=0;orthogonalLoop=1;jettySize=auto;html=1;" parent="1" source="htTb-2GC3eU_kXo-NMkK-108" target="htTb-2GC3eU_kXo-NMkK-99" edge="1">
          <mxGeometry relative="1" as="geometry" />
        </mxCell>
        <mxCell id="htTb-2GC3eU_kXo-NMkK-108" value="Fecha" style="ellipse;whiteSpace=wrap;html=1;" parent="1" vertex="1">
          <mxGeometry x="300" y="945" width="60" height="30" as="geometry" />
        </mxCell>
        <mxCell id="htTb-2GC3eU_kXo-NMkK-111" style="edgeStyle=orthogonalEdgeStyle;rounded=0;orthogonalLoop=1;jettySize=auto;html=1;exitX=1;exitY=0.5;exitDx=0;exitDy=0;entryX=0;entryY=0.5;entryDx=0;entryDy=0;" parent="1" source="htTb-2GC3eU_kXo-NMkK-109" target="htTb-2GC3eU_kXo-NMkK-99" edge="1">
          <mxGeometry relative="1" as="geometry" />
        </mxCell>
        <mxCell id="htTb-2GC3eU_kXo-NMkK-109" value="ID_Mensaje" style="ellipse;whiteSpace=wrap;html=1;" parent="1" vertex="1">
          <mxGeometry x="5" y="945" width="70" height="30" as="geometry" />
        </mxCell>
        <mxCell id="90wcrG-CiTOFUjwQmo_P-3" style="edgeStyle=orthogonalEdgeStyle;rounded=0;orthogonalLoop=1;jettySize=auto;html=1;exitX=0;exitY=0.5;exitDx=0;exitDy=0;entryX=1;entryY=0;entryDx=0;entryDy=0;" edge="1" parent="1" source="90wcrG-CiTOFUjwQmo_P-1" target="htTb-2GC3eU_kXo-NMkK-99">
          <mxGeometry relative="1" as="geometry" />
        </mxCell>
        <mxCell id="90wcrG-CiTOFUjwQmo_P-1" value="Receptor" style="ellipse;whiteSpace=wrap;html=1;" vertex="1" parent="1">
          <mxGeometry x="300" y="892.5" width="60" height="30" as="geometry" />
        </mxCell>
        <mxCell id="90wcrG-CiTOFUjwQmo_P-5" style="edgeStyle=orthogonalEdgeStyle;rounded=0;orthogonalLoop=1;jettySize=auto;html=1;exitX=1;exitY=1;exitDx=0;exitDy=0;entryX=1;entryY=1;entryDx=0;entryDy=0;" edge="1" parent="1" source="90wcrG-CiTOFUjwQmo_P-4" target="htTb-2GC3eU_kXo-NMkK-3">
          <mxGeometry relative="1" as="geometry" />
        </mxCell>
        <mxCell id="90wcrG-CiTOFUjwQmo_P-4" value="NombreUsuario" style="ellipse;whiteSpace=wrap;html=1;direction=west;" vertex="1" parent="1">
          <mxGeometry x="230" y="730" width="90" height="50" as="geometry" />
        </mxCell>
        <mxCell id="90wcrG-CiTOFUjwQmo_P-7" style="edgeStyle=orthogonalEdgeStyle;rounded=0;orthogonalLoop=1;jettySize=auto;html=1;exitX=0;exitY=0;exitDx=0;exitDy=0;entryX=1;entryY=0.75;entryDx=0;entryDy=0;" edge="1" parent="1" source="90wcrG-CiTOFUjwQmo_P-6" target="htTb-2GC3eU_kXo-NMkK-3">
          <mxGeometry relative="1" as="geometry" />
        </mxCell>
        <mxCell id="90wcrG-CiTOFUjwQmo_P-6" value="Adminstrador?" style="ellipse;whiteSpace=wrap;html=1;" vertex="1" parent="1">
          <mxGeometry x="310" y="700" width="80" height="40" as="geometry" />
        </mxCell>
      </root>
    </mxGraphModel>
  </diagram>
</mxfile>
